<?xml version="1.0" encoding="UTF-8"?>
<!DOCTYPE svg PUBLIC "-//W3C//DTD SVG 1.1//EN" "http://www.w3.org/Graphics/SVG/1.1/DTD/svg11.dtd">
<!-- Creator: CorelDRAW -->
<svg xmlns="http://www.w3.org/2000/svg" xml:space="preserve" width="48px" height="50px" version="1.1" style="shape-rendering:geometricPrecision; text-rendering:geometricPrecision; image-rendering:optimizeQuality; fill-rule:evenodd; clip-rule:evenodd"
viewBox="0 0 0.94 0.97"
 xmlns:xlink="http://www.w3.org/1999/xlink"
 xmlns:xodm="http://www.corel.com/coreldraw/odm/2003">
 <defs>
  <style type="text/css">
   <![CDATA[
    .fil0 {fill:#8FCF3A}
   ]]>
  </style>
 </defs>
 <g id="Layer_x0020_1">
  <metadata id="CorelCorpID_0Corel-Layer"/>
  <path class="fil0" d="M0.8 0.23c0,-0.02 0,-0.04 0,-0.06 0,-0.01 0,-0.02 0,-0.03 -0.01,-0.02 -0.03,-0.03 -0.06,-0.03l-0.1 0c0,0 -0.04,-0.03 -0.05,-0.03l-0.08 -0.06c-0.02,-0.01 -0.03,-0.03 -0.04,-0.02l-0.06 0.04c-0.02,0.01 -0.05,0.03 -0.07,0.05 0,0 -0.01,0.01 -0.01,0.01 -0.02,0.01 -0.02,0.01 -0.03,0.01 -0.02,0 -0.04,0 -0.06,0 -0.03,0 -0.07,-0.01 -0.09,0.02 -0.01,0.02 -0.01,0.03 -0.01,0.05 0,0.01 0,0.02 0,0.03 0,0.02 0,0.02 -0.01,0.03l-0.07 0.05c0,0 -0.01,0 -0.01,0.01 -0.02,0.01 -0.03,0.01 -0.04,0.02 0,0.01 -0.01,0.02 -0.01,0.02 0,0.02 0,0.04 0,0.06 0,0.16 0,0.32 0,0.48 0,0.04 0.02,0.07 0.04,0.08 0.02,0.01 0.03,0.01 0.05,0.01l0.72 0c0.02,0 0.04,0 0.06,0 0.03,-0.01 0.06,-0.03 0.07,-0.05 0,-0.02 0,-0.04 0,-0.06l0 -0.47c0,-0.02 0.01,-0.05 0,-0.06 -0.02,-0.02 -0.02,-0.02 -0.04,-0.03l-0.09 -0.07c-0.01,0 0,0 -0.01,0zm-0.74 0.12c0,0 0.01,0 0.01,0 0,0.01 0,0.01 0.01,0.01l0.06 0.05c0,-0.01 0,-0.09 0,-0.12l-0.02 0.01c-0.01,0.01 -0.03,0.02 -0.04,0.03 -0.01,0 -0.02,0.01 -0.02,0.02zm0.74 0.06c0.01,0 0.05,-0.04 0.06,-0.04 0,0 0.02,-0.02 0.03,-0.02 -0.01,-0.01 -0.03,-0.02 -0.05,-0.03 0,-0.01 -0.03,-0.03 -0.04,-0.03l0 0.12zm-0.6 -0.26c-0.01,0.01 -0.02,0.01 -0.02,0.02l0 0.26c0,0.02 0,0.02 0.01,0.03 0.04,0.02 0.07,0.06 0.11,0.08 0.01,0.01 0.02,0.02 0.03,0.03l0.05 0.04c0,0 0,0 0.01,0l0.16 0c0.01,0 0.01,0 0.02,-0.01 0.03,-0.02 0.07,-0.05 0.09,-0.07 0.03,-0.02 0.06,-0.05 0.09,-0.07 0.01,-0.01 0.01,-0.01 0.01,-0.03l0 -0.26c0,-0.02 -0.02,-0.02 -0.05,-0.02 0,0 -0.51,0 -0.51,0zm-0.13 0.77c0,0.01 0.03,0 0.04,0l0.72 0c0.01,0 0.02,0 0.03,0 0,0 0.01,0 0.02,0l-0.3 -0.25c0,0 -0.01,0 -0.01,-0.01 0,0 0,0 -0.01,0 -0.02,0 -0.18,0 -0.18,0l-0.04 0.03c-0.01,0.01 -0.02,0.01 -0.02,0.02l-0.04 0.03c0,0 0,0.01 -0.01,0.01l-0.2 0.17zm0.54 -0.28c0.01,0.01 0.04,0.03 0.05,0.04 0,0 0.01,0.01 0.01,0.01 0.03,0.02 0.06,0.04 0.08,0.07l0.04 0.03c0.01,0.01 0.02,0.02 0.04,0.03l0.07 0.06 0 -0.49c0,0 -0.01,0.01 -0.01,0.01 -0.02,0.02 -0.04,0.04 -0.06,0.05 -0.04,0.03 -0.08,0.06 -0.11,0.09l-0.11 0.09c0,0.01 0,0 0,0.01zm-0.56 0.24c0,-0.01 0,-0.01 0,-0.01 0.01,0 0.01,-0.01 0.01,-0.01 0.02,-0.01 0.04,-0.03 0.06,-0.04l0.07 -0.06c0.05,-0.04 0.1,-0.08 0.15,-0.12 0,-0.01 -0.01,-0.01 -0.01,-0.01l-0.1 -0.09c-0.01,-0.01 -0.03,-0.02 -0.04,-0.03 0,0 -0.01,-0.01 -0.02,-0.01 -0.02,-0.02 -0.05,-0.05 -0.08,-0.07 0,0 0,0 -0.01,-0.01l-0.03 -0.03 0 0.49zm0.34 -0.77l0.17 0c0,0 -0.02,-0.01 -0.02,-0.02l-0.06 -0.04c-0.01,0 -0.02,0.01 -0.02,0.01 -0.01,0.01 -0.06,0.04 -0.07,0.05z"/>
  <path class="fil0" d="M0.55 0.47c0,0 -0.02,0.02 -0.07,0.03 -0.03,0 -0.07,0 -0.09,-0.02 -0.01,-0.01 -0.02,-0.02 -0.02,-0.04 -0.01,-0.04 0.01,-0.09 0.04,-0.11 0.03,-0.03 0.07,-0.05 0.12,-0.04 0.01,0 0.01,0 0.02,0 0.01,0.01 0.01,0.01 0.02,0.02 0.02,0.02 0.01,0.08 -0.02,0.11 0,0.01 -0.02,0.03 -0.03,0.02 0,-0.01 0,-0.02 0.01,-0.03l0.03 -0.09c-0.01,0 -0.04,0 -0.04,0l0 0.01c-0.01,-0.01 -0.01,-0.01 -0.02,-0.02 -0.02,0 -0.04,0.01 -0.06,0.02 -0.02,0.01 -0.03,0.04 -0.04,0.06 -0.01,0.03 -0.01,0.06 0.02,0.08 0.02,0.01 0.06,0 0.07,-0.02 0,0 0,0.01 0,0.01 0.01,0.01 0.04,0.01 0.05,0 0.02,-0.01 0.05,-0.03 0.06,-0.05 0.04,-0.07 0.03,-0.15 -0.07,-0.16 -0.06,-0.01 -0.13,0.01 -0.17,0.06 0,0.01 -0.01,0.01 -0.01,0.02 -0.04,0.06 -0.04,0.16 0.03,0.19 0.02,0 0.05,0.01 0.07,0 0.03,0 0.07,-0.01 0.09,-0.03 0,0 0.01,0 0.01,0 0,-0.01 0,-0.02 0,-0.02zm-0.06 -0.13c-0.03,0.01 -0.05,0.05 -0.05,0.08 0,0.01 0,0.02 0.02,0.02 0.02,0 0.03,-0.03 0.03,-0.05 0.01,-0.01 0.01,-0.02 0.01,-0.03 0,0 0.01,-0.01 0,-0.01 0,-0.01 0,-0.01 -0.01,-0.01z"/>
 </g>
</svg>
