<?xml version="1.0" encoding="UTF-8"?>
<!DOCTYPE svg PUBLIC "-//W3C//DTD SVG 1.1//EN" "http://www.w3.org/Graphics/SVG/1.1/DTD/svg11.dtd">
<!-- Creator: CorelDRAW -->
<svg xmlns="http://www.w3.org/2000/svg" xml:space="preserve" width="49px" height="50px" version="1.1" style="shape-rendering:geometricPrecision; text-rendering:geometricPrecision; image-rendering:optimizeQuality; fill-rule:evenodd; clip-rule:evenodd"
viewBox="0 0 0.87 0.88"
 xmlns:xlink="http://www.w3.org/1999/xlink"
 xmlns:xodm="http://www.corel.com/coreldraw/odm/2003">
 <defs>
  <style type="text/css">
   <![CDATA[
    .fil0 {fill:#8FCF3A}
   ]]>
  </style>
 </defs>
 <g id="Layer_x0020_1">
  <metadata id="CorelCorpID_0Corel-Layer"/>
  <g id="_2292672167168">
   <path class="fil0" d="M0 0.88c0.06,-0.02 0.16,-0.05 0.22,-0.07 0.03,-0.01 0.03,0.01 0.13,0.03 0.25,0.06 0.5,-0.12 0.52,-0.38 0.03,-0.42 -0.51,-0.63 -0.77,-0.29 -0.09,0.12 -0.12,0.3 -0.04,0.45 0.02,0.04 0.02,0.03 0,0.08 -0.02,0.05 -0.05,0.13 -0.06,0.18zm0.11 -0.1c0.03,-0.01 0.11,-0.05 0.14,-0.04 0.03,0.01 0.05,0.04 0.14,0.05 0.34,0.05 0.54,-0.38 0.29,-0.61 -0.06,-0.05 -0.15,-0.11 -0.27,-0.1 -0.11,0.01 -0.2,0.07 -0.25,0.13 -0.1,0.13 -0.11,0.28 -0.02,0.42 0.01,0.03 -0.02,0.1 -0.03,0.15z"/>
   <path class="fil0" d="M0.54 0.49c-0.01,0.01 -0.01,0.01 -0.02,0.02 -0.04,0.05 -0.04,0.04 -0.07,0.02 -0.04,-0.02 -0.07,-0.05 -0.09,-0.08 -0.06,-0.08 -0.01,-0.05 0,-0.1 0.01,-0.02 -0.03,-0.11 -0.04,-0.12 -0.03,0 -0.04,-0.01 -0.06,0.01 -0.16,0.15 0.19,0.47 0.34,0.4 0.02,-0.01 0.03,-0.02 0.04,-0.04 0.01,-0.01 0.02,-0.04 0.01,-0.06 -0.01,-0.01 -0.09,-0.05 -0.11,-0.05z"/>
  </g>
 </g>
</svg>
